Coordinates
version=1
nRows=7
nColumns=42
inDegrees=yes

Units are S.I. units (second, meters, Newtons, ...)
If the header above contains a line with 'inDegrees', this indicates whether rotational values are in degrees (yes) or radians (no).

endheader
time	pelvis_tilt	pelvis_list	pelvis_rotation	pelvis_tx	pelvis_ty	pelvis_tz	hip_flexion_r	hip_adduction_r	hip_rotation_r	knee_angle_r	knee_adduction_r	knee_angle_r_beta	ankle_angle_r	subtalar_angle_r	mtp_angle_r	hip_flexion_l	hip_adduction_l	hip_rotation_l	knee_angle_l	knee_adduction_l	knee_angle_l_beta	ankle_angle_l	subtalar_angle_l	mtp_angle_l	lumbar_extension	lumbar_bending	lumbar_rotation	arm_flex_r	arm_add_r	arm_rot_r	elbow_flex_r	pro_sup_r	wrist_flex_r	wrist_dev_r	arm_flex_l	arm_add_l	arm_rot_l	elbow_flex_l	pro_sup_l	wrist_flex_l	wrist_dev_l
      1.07000000	     11.46669892	      5.04591382	      0.41010913	     -0.23530978	      0.92891206	     -0.27816998	     23.75216394	     -4.22114140	    -12.73605945	     46.28552011	     -7.45978681	      0.80783472	     12.39748958	     -0.91143909	     -7.85022535	     -6.30010005	     13.06525377	    -29.73724669	     21.02150393	    -11.78891698	      0.36689446	     25.88128306	     31.18451682	     -7.85022535	    -42.88360278	     -7.43829425	     -4.31391850	      3.64024141	     -8.07426834	     11.24628071	     38.93430325	     90.00000001	      0.00000000	      0.00000000	     -5.47492283	    -13.76608232	     14.72529801	     48.65328981	     90.00000001	      0.00000000	      0.00000000
      1.08000000	     11.20151608	      5.35958195	      0.08618775	     -0.22990176	      0.92733812	     -0.27785002	     24.59240262	     -4.35537423	    -12.91828324	     44.55024221	     -7.34059002	      0.77754841	     12.52440929	     -0.47404091	     -7.84625264	     -6.50610270	     13.60311528	    -29.93690829	     20.70464668	    -11.88164069	      0.36136426	     26.11047456	     30.97654549	     -7.84625264	    -42.56821181	     -7.86909870	     -4.28801462	      3.59446911	     -8.00392922	     11.26580841	     38.94875497	     90.00000001	      0.00000000	      0.00000000	     -5.60760989	    -13.84303011	     14.74768179	     48.57324614	     90.00000001	      0.00000000	      0.00000000
      1.09000000	     11.54251535	      5.43778653	     -0.20690110	     -0.22365034	      0.92717058	     -0.27752103	     24.42967642	     -4.34409227	    -14.72598310	     42.26628301	     -8.01256118	      0.73768580	     13.82850463	      3.79673123	     -7.83120601	     -7.76232691	     13.77617986	    -30.15537032	     19.90789858	    -11.63014704	      0.34745838	     26.21137442	     31.60712072	     -7.83120601	    -42.82223417	     -8.00226467	     -4.08092226	      3.51650343	     -8.02188775	     11.15808829	     38.95651860	     90.00000001	      0.00000000	      0.00000000	     -5.62888669	    -13.83798041	     14.86435908	     48.38046102	     90.00000001	      0.00000000	      0.00000000
      1.10000000	     11.46035589	      5.70843669	     -0.50500714	     -0.21772988	      0.92576603	     -0.27728296	     24.99826169	     -4.54785736	    -16.33895281	     40.50143849	     -8.63187999	      0.70688345	     14.79626669	      7.28797277	     -7.81458860	     -8.27182880	     14.25619662	    -30.37767006	     19.47219828	    -11.68655875	      0.33985397	     26.48661054	     31.83588335	     -7.81458860	    -42.63960321	     -8.34162721	     -4.01076412	      3.43411480	     -8.00241249	     11.17311828	     38.93010460	     90.00000001	      0.00000000	      0.00000000	     -5.75699375	    -13.86976918	     14.94751432	     48.30669664	     90.00000001	      0.00000000	      0.00000000
      1.11000000	     11.19554611	      6.01710453	     -0.86875243	     -0.21213711	      0.92395688	     -0.27681740	     25.74335067	     -4.59880351	    -16.66558935	     38.93443969	     -8.64535159	      0.67953417	     15.00647464	      7.86472880	     -7.81152264	     -8.46481551	     14.82897667	    -30.58617531	     19.13473983	    -11.85233549	      0.33396421	     26.73934237	     31.78073975	     -7.81152264	    -42.29505901	     -8.77504369	     -3.92836953	      3.37987511	     -7.95126877	     11.18658079	     38.92410654	     90.00000001	      0.00000000	      0.00000000	     -5.85909387	    -13.94225570	     14.97708209	     48.23612918	     90.00000001	      0.00000000	      0.00000000
      1.12000000	     11.39046452	      6.17869998	     -1.11206257	     -0.20572946	      0.92311213	     -0.27661031	     25.81944176	     -4.81173416	    -19.15415663	     37.14934795	     -9.48196428	      0.64837844	     16.27498840	     12.96029981	     -7.79674926	     -9.44646869	     15.11307915	    -30.66991959	     18.58380145	    -11.65745249	      0.32434852	     26.87348735	     32.10655816	     -7.79674926	    -42.37604931	     -8.93653570	     -3.75782222	      3.24911079	     -7.96397257	     11.03660052	     38.91041681	     90.00000001	      0.00000000	      0.00000000	     -5.89609296	    -13.94315716	     15.14806764	     48.10024944	     90.00000001	      0.00000000	      0.00000000
      1.13000000	     11.09452602	      6.49662617	     -1.48586627	     -0.19997737	      0.92110410	     -0.27603068	     26.56163133	     -4.86240431	    -19.61051859	     35.84835939	     -9.56249930	      0.62567190	     16.47993713	     13.67646488	     -7.79330881	     -9.57755680	     15.70393952	    -30.79558410	     18.30381241	    -11.83811698	      0.31946179	     27.15465470	     31.96842408	     -7.79330881	    -41.98056657	     -9.39128741	     -3.67206541	      3.18464498	     -7.91780719	     11.07095882	     38.87661798	     90.00000001	      0.00000000	      0.00000000	     -5.98595330	    -14.02239411	     15.17769916	     48.01314840	     90.00000001	      0.00000000	      0.00000000
